<svg width="55" height="55" viewBox="0 0 55 55" fill="none" xmlns="http://www.w3.org/2000/svg">
<circle cx="27.5" cy="27.5" r="27.5" fill="#4F4F4F"/>
<path d="M27.9284 18.0167C28.9965 18 30.0564 18.0083 31.1163 18C31.1815 19.275 31.6299 20.575 32.5431 21.475C33.4562 22.3999 34.7444 22.8249 36 22.9666V26.3249C34.8259 26.2832 33.6437 26.0332 32.5757 25.5166C32.111 25.2999 31.6788 25.0249 31.2549 24.7416C31.2467 27.1749 31.263 29.6082 31.2386 32.0332C31.1733 33.1998 30.7983 34.3581 30.1379 35.3165C29.0698 36.9164 27.2191 37.9581 25.3194 37.9914C24.1535 38.0581 22.9876 37.7331 21.9929 37.1331C20.346 36.1414 19.1883 34.3248 19.017 32.3748C19.0007 31.9582 18.9926 31.5415 19.0089 31.1332C19.1556 29.5499 19.922 28.0332 21.1124 26.9999C22.4658 25.7999 24.3573 25.2249 26.1266 25.5666C26.1429 26.7999 26.094 28.0332 26.094 29.2665C25.2868 28.9999 24.341 29.0749 23.6317 29.5749C23.1181 29.9165 22.7267 30.4415 22.5229 31.0332C22.3517 31.4582 22.4006 31.9248 22.4087 32.3748C22.6044 33.7415 23.8926 34.8915 25.2623 34.7665C26.1755 34.7581 27.0479 34.2165 27.5208 33.4248C27.6757 33.1498 27.8469 32.8665 27.855 32.5415C27.9366 31.0498 27.9039 29.5665 27.9121 28.0749C27.9203 24.7166 27.9039 21.3666 27.9284 18.0167Z" fill="white"/>
</svg>
