<svg width="55" height="55" viewBox="0 0 55 55" fill="none" xmlns="http://www.w3.org/2000/svg">
<circle cx="27.5" cy="27.5" r="27.5" fill="#4F4F4F"/>
<path d="M41.3934 21.1236C41.2296 20.5195 40.9065 19.9682 40.4565 19.5249C40.0065 19.0815 39.4454 18.7616 38.8293 18.5973C36.5685 18 27.5 18 27.5 18C27.5 18 18.4315 18 16.1695 18.5973C15.5537 18.7619 14.9929 19.0819 14.5431 19.5252C14.0934 19.9686 13.7704 20.5197 13.6066 21.1236C13 23.3519 13 28 13 28C13 28 13 32.6481 13.6066 34.8764C13.7704 35.4805 14.0935 36.0318 14.5435 36.4751C14.9935 36.9185 15.5546 37.2384 16.1707 37.4027C18.4315 38 27.5 38 27.5 38C27.5 38 36.5685 38 38.8305 37.4027C39.4466 37.2385 40.0078 36.9187 40.4578 36.4753C40.9078 36.0319 41.2309 35.4805 41.3946 34.8764C42 32.6481 42 28 42 28C42 28 42 23.3519 41.3934 21.1236ZM24.5335 32.22V23.78L32.1134 28L24.5335 32.22Z" fill="white"/>
</svg>
