<svg width="423" height="48" viewBox="0 0 423 48" fill="none" xmlns="http://www.w3.org/2000/svg">
<path d="M19.2549 39.2439H26.0873V0H16.1493C6.15479 0 0.903456 5.13841 0.903456 12.7049C0.903456 18.7467 3.78322 22.3041 8.92163 25.9744L0 39.2439H7.39705L17.3351 24.3933L13.8906 22.0782C9.71215 19.2549 7.67938 17.0527 7.67938 12.3096C7.67938 8.13111 10.6156 5.30781 16.2057 5.30781H19.2549V39.2439ZM150.99 39.8086C154.096 39.8086 156.298 39.2439 157.935 38.0581V32.5809C156.241 33.7667 154.209 34.5007 151.385 34.5007C146.586 34.5007 144.609 30.774 144.609 24.9015C144.609 18.7467 147.037 15.5846 151.442 15.5846C154.039 15.5846 156.58 16.4881 157.935 17.3351V11.632C156.524 10.8415 154.039 10.2768 150.708 10.2768C142.125 10.2768 137.664 16.4316 137.664 25.0709C137.664 34.5572 142.012 39.8086 150.99 39.8086ZM108.979 37.324V31.8468C106.89 33.2585 103.389 34.5007 100.114 34.5007C95.2017 34.5007 93.3383 32.1856 93.056 27.4425H109.262V23.8851C109.262 14.0036 104.914 10.2768 98.1944 10.2768C90.0068 10.2768 86.1107 16.5445 86.1107 25.1274C86.1107 35.0089 90.9667 39.8086 99.5496 39.8086C103.841 39.8086 107.003 38.6792 108.979 37.324ZM130.436 39.2439H138.059L127.274 24.1675L136.761 10.8415H129.985L120.498 24.1675V10.8415H113.779V39.2439H120.498V25.5226L130.436 39.2439ZM84.4731 33.9361H81.4804V10.8415H61.8867V13.2695C61.8867 20.2148 61.435 29.1929 59.0634 33.9361H56.9742V45.7375H63.1855V39.2439H78.2619V45.7375H84.4731V33.9361ZM47.4314 10.8415V22.0782H38.4533V10.8415H31.7339V39.2439H38.4533V27.386H47.4314V39.2439H54.1509V10.8415H47.4314ZM98.0814 15.5846C101.413 15.5846 102.429 18.3515 102.429 21.9088V22.4735H93.056C93.2254 17.9562 94.8629 15.5846 98.0814 15.5846ZM74.761 33.9361H65.2747C67.1381 29.6447 67.6463 21.9088 67.6463 16.9963V16.1493H74.761V33.9361ZM173.752 0V39.2439H180.584V5.30781H192.781V39.2439H199.613V0H173.752ZM211.45 10.8415H205.239V47.4315H211.958V35.9124C213.652 38.4534 216.137 39.8086 219.017 39.8086C225.567 39.8086 230.084 34.5572 230.084 25.0145C230.084 15.5282 225.68 10.2768 219.355 10.2768C216.193 10.2768 213.596 11.7449 211.789 14.5118L211.45 10.8415ZM217.323 34.5007C213.765 34.5007 211.958 31.621 211.958 25.0709C211.958 18.4644 213.878 15.5846 217.661 15.5846C221.332 15.5846 223.139 18.4644 223.139 25.0145C223.139 31.621 221.219 34.5007 217.323 34.5007ZM255.529 19.876C255.529 12.9872 252.028 10.3897 244.914 10.3897C240.453 10.3897 236.952 11.8014 234.919 12.9872V18.5773C236.726 17.2221 240.679 15.754 244.123 15.754C247.342 15.754 248.81 16.8833 248.81 19.9325V21.5136H247.737C237.46 21.5136 232.887 24.9015 232.887 30.6611C232.887 36.4206 236.387 39.6392 241.582 39.6392C245.535 39.6392 247.229 38.3404 248.528 36.9853H248.81C248.866 37.7193 249.092 38.6792 249.318 39.2439H255.868C255.642 36.9288 255.529 34.6137 255.529 32.2986V19.876ZM248.81 32.468C247.963 33.7102 246.382 34.7266 244.01 34.7266C241.187 34.7266 239.775 33.1456 239.775 30.7175C239.775 27.499 242.09 26.3132 247.85 26.3132H248.81V32.468ZM277.589 39.2439H285.212L274.427 24.1675L283.913 10.8415H277.137L267.651 24.1675V10.8415H260.931V39.2439H267.651V25.5226L277.589 39.2439ZM307.74 16.1493V10.8415H285.21V16.1493H293.115V39.2439H299.834V16.1493H307.74ZM311.719 10.8415V39.2439H317.704L327.981 21.683V39.2439H334.475V10.8415H328.489L318.212 28.4024V10.8415H311.719ZM356.775 39.2439H364.398L353.613 24.1675L363.099 10.8415H356.323L346.837 24.1675V10.8415H340.117V39.2439H346.837V25.5226L356.775 39.2439ZM370.31 47.9961C376.577 47.9961 378.893 43.5353 380.812 37.7193L389.678 10.8415H383.184L376.916 32.1856L370.649 10.8415H363.59L373.359 40.4861C372.625 41.8413 371.552 42.6883 369.689 42.6883C368.446 42.6883 367.373 42.2931 366.639 41.559V47.0362C366.639 47.0362 367.656 47.9961 370.31 47.9961ZM416.45 39.2439H423L422.887 10.8415H413.683L407.528 29.7576L401.995 10.8415H392.226V39.2439H397.929V18.0127L404.084 39.2439H409.561L416.45 18.0127V39.2439Z" fill="white"/>
</svg>
